<svg id="Layer_1" data-name="Layer 1" xmlns="http://www.w3.org/2000/svg" viewBox="0 0 1080 1080"><defs><style>.cls-1{fill:#b40000;}</style></defs><title>Cometa rosie</title><path class="cls-1" d="M860.84,685.5c-13,64.62-38.85,123.06-80.53,174.13-41.48,50.83-92.47,89-153.52,113.3q-91.92,36.66-190.12,23.85C273.46,975.68,136.21,847.29,111.42,675,88,511.87,173.4,348.43,329.42,277c1.87-.53,3.88-.81,5.14-3.11-2.66-.34-5-.56-6.91,1.38-37.23,7.29-74.45,14.7-111.73,21.72a26,26,0,0,0-13.61,6.77C97.53,401.27,50,521.34,62.77,664,71.62,763.1,111.69,849.13,182,919.16,289.75,1026.52,420.47,1068,569.6,1038.45c148.17-29.38,251-118.19,311.44-256.29a14.14,14.14,0,0,0,.94-9.67C874.78,743.53,867.85,714.51,860.84,685.5Z"/><path class="cls-1" d="M1014.12,37.73a8.61,8.61,0,0,0-1.55.93Q776.86,252.41,541.17,466.19q-69.7,63.19-139.64,126.16c-.09-.84-.17-1.68-.25-2.53.72-1,1.36-2,2.17-2.88Q510,469.72,616.64,352.51q69.17-76.1,138.19-152.33h0c3-2.2,5.85-4.58,7.55-9.24-5.24.94-7.52,4-9.72,7.08a22,22,0,0,0-2.21,1.57Q571.62,360.84,392.76,522.05c-2.53,2.28-4.44,5.84-10.1,6.11,32.51-40.77,64.28-80.65,96.08-120.51s63.81-79.91,96.19-120.47c-3.38-1-5.89-1.87-8.46-2.51-53.2-13.32-106.48-13.62-160.13-2.12C244.13,317.32,126.9,473.81,139.18,639.05c6.18,83.18,36.37,156.13,94.64,215.65C320.77,943.51,427,976.8,549.08,954.28,762,915,884.84,680.12,797.64,481.35c-3.28-7.46-5.13-7-10.61-2Q660.31,596.14,533.24,712.54,514,730.26,494.58,747.91a13,13,0,0,1,3.35-6.61q98.4-117.85,196.8-235.71,92.74-111.16,185.41-222.42a9.22,9.22,0,0,0,4.65-8l-5,5.3q-141,130.14-282.09,260.27Q509,622.6,420.16,704.39l-2.65-.29c1.33-1.67,2.57-3.42,4-5Q640.62,455.77,859.75,212.44q77.41-86,154.64-172.17h0c2.16-2,5.63-3.17,4.71-8Z"/></svg>